HIERARCHY
ROOT Hips
{
	OFFSET 0.00000 0.00000 0.00000
	CHANNELS 6 Xposition Yposition Zposition Zrotation Yrotation Xrotation 
	JOINT LHipJoint
	{
		OFFSET 0 0 0
		CHANNELS 3 Zrotation Yrotation Xrotation
		JOINT LeftUpLeg
		{
			OFFSET 1.85742 -1.74412 1.01653
			CHANNELS 3 Zrotation Yrotation Xrotation
			JOINT LeftLeg
			{
				OFFSET 2.54803 -7.00067 0.00000
				CHANNELS 3 Zrotation Yrotation Xrotation
				JOINT LeftFoot
				{
					OFFSET 2.51202 -6.90173 0.00000
					CHANNELS 3 Zrotation Yrotation Xrotation
					JOINT LeftToeBase
					{
						OFFSET 0.17547 -0.48209 1.64281
						CHANNELS 3 Zrotation Yrotation Xrotation
						End Site
						{
							OFFSET 0.00000 -0.00000 0.86587
						}
					}
				}
			}
		}
	}
	JOINT RHipJoint
	{
		OFFSET 0 0 0
		CHANNELS 3 Zrotation Yrotation Xrotation
		JOINT RightUpLeg
		{
			OFFSET -1.95533 -1.74413 1.01654
			CHANNELS 3 Zrotation Yrotation Xrotation
			JOINT RightLeg
			{
				OFFSET -2.49465 -6.85400 0.00000
				CHANNELS 3 Zrotation Yrotation Xrotation
				JOINT RightFoot
				{
					OFFSET -2.54783 -7.00010 0.00000
					CHANNELS 3 Zrotation Yrotation Xrotation
					JOINT RightToeBase
					{
						OFFSET -0.18513 -0.50864 1.69288
						CHANNELS 3 Zrotation Yrotation Xrotation
						End Site
						{
							OFFSET -0.00000 -0.00000 0.89242
						}
					}
				}
			}
		}
	}
	JOINT LowerBack
	{
		OFFSET 0 0 0
		CHANNELS 3 Zrotation Yrotation Xrotation
		JOINT Spine
		{
			OFFSET 0.02173 2.16290 -0.15998
			CHANNELS 3 Zrotation Yrotation Xrotation
			JOINT Spine1
			{
				OFFSET 0.00940 2.17323 -0.00467
				CHANNELS 3 Zrotation Yrotation Xrotation
				JOINT Neck
				{
					OFFSET 0 0 0
					CHANNELS 3 Zrotation Yrotation Xrotation
					JOINT Neck1
					{
						OFFSET 0.01475 1.85823 0.31113
						CHANNELS 3 Zrotation Yrotation Xrotation
						JOINT Head
						{
							OFFSET 0.01902 1.88783 -0.37187
							CHANNELS 3 Zrotation Yrotation Xrotation
							End Site
							{
								OFFSET 0.00489 1.93211 -0.16169
							}
						}
					}
				}
				JOINT LeftShoulder
				{
					OFFSET 0 0 0
					CHANNELS 3 Zrotation Yrotation Xrotation
					JOINT LeftArm
					{
						OFFSET 3.34199 1.32384 -0.07862
						CHANNELS 3 Zrotation Yrotation Xrotation
						JOINT LeftForeArm
						{
							OFFSET 5.27950 -0.00000 0.00000
							CHANNELS 3 Zrotation Yrotation Xrotation
							JOINT LeftHand
							{
								OFFSET 3.53504 -0.00000 0.00000
								CHANNELS 3 Zrotation Yrotation Xrotation
								JOINT LeftFingerBase
								{
									OFFSET 0 0 0
									CHANNELS 3 Zrotation Yrotation Xrotation
									JOINT LeftHandIndex1
									{
										OFFSET 0.66795 -0.00000 0.00000
										CHANNELS 3 Zrotation Yrotation Xrotation
										End Site
										{
											OFFSET 0.53852 -0.00000 0.00000
										}
									}
								}
								JOINT LThumb
								{
									OFFSET 0 0 0
									CHANNELS 3 Zrotation Yrotation Xrotation
									End Site
									{
										OFFSET 0.54674 -0.00000 0.54674
									}
								}
							}
						}
					}
				}
				JOINT RightShoulder
				{
					OFFSET 0 0 0
					CHANNELS 3 Zrotation Yrotation Xrotation
					JOINT RightArm
					{
						OFFSET -3.16149 1.45719 -0.50507
						CHANNELS 3 Zrotation Yrotation Xrotation
						JOINT RightForeArm
						{
							OFFSET -5.25035 -0.00000 0.00000
							CHANNELS 3 Zrotation Yrotation Xrotation
							JOINT RightHand
							{
								OFFSET -3.58884 -0.00000 0.00000
								CHANNELS 3 Zrotation Yrotation Xrotation
								JOINT RightFingerBase
								{
									OFFSET 0 0 0
									CHANNELS 3 Zrotation Yrotation Xrotation
									JOINT RightHandIndex1
									{
										OFFSET -0.77924 -0.00000 0.00000
										CHANNELS 3 Zrotation Yrotation Xrotation
										End Site
										{
											OFFSET -0.62824 -0.00000 0.00000
										}
									}
								}
								JOINT RThumb
								{
									OFFSET 0 0 0
									CHANNELS 3 Zrotation Yrotation Xrotation
									End Site
									{
										OFFSET -0.63783 -0.00000 0.63783
									}
								}
							}
						}
					}
				}
			}
		}
	}
}
MOTION
Frames: 15
Frame Time: .0083333
5.1638 17.4712 -14.0208 0 0 0 0 0 0 -21 0 0 0 0 0 0 0 0 0 0 0 0 0 0 21 0 0 0 0 0 0 0 0 0 0 0 0 0 0 0 0 0 0 0 0 0 0 -16 0 0 21 0 0 11 0 0 0 -8 0 0 0 0 0 0 0 0 0 0 0 0 0 0 0 0 0 0 0 0 8 0 0 0 0 0 0 0 0 0 0 0 0 0 0 0 0 0
5.1638 17.4712 -14.0208 -4.2192 9.6753 3.8859 0.0000 0.0000 0.0000 -12.4672 -20.9383 -3.7417 1.3279 7.2975 20.5997 0.7924 7.2920 -20.9978 2.5435 -9.9166 -28.7070 0.0000 0.0000 0.0000 23.7236 5.2221 -0.2412 -0.2585 -3.2708 9.0337 -0.2007 -5.8089 -12.5470 -0.0003 -0.1134 0.3115 3.8313 0.8141 1.7324 1.5638 1.2317 -1.4174 -0.5857 0.5647 -2.3830 11.2169 11.2267 -18.2884 -6.3134 13.4099 12.2635 -2.1202 6.3657 7.9358 -0.0000 -0.0000 0.0000 -84.0773 4.5709 38.7555 17.3369 -27.2998 -4.2407 -0.0000 0.0000 -26.4406 35.1941 51.7225 28.9711 -7.1250 0.0000 -0.0000 -54.2739 85.2516 -50.3184 -0.0000 -0.0000 0.0000 77.7662 -25.0350 5.3713 -76.3058 59.2794 -48.1692 0.0000 0.0000 0.1386 -12.4018 17.5824 -3.8003 7.1250 -0.0000 -0.0000 10.2488 -12.2177 7.9795
5.1714 17.4854 -14.0329 -3.9882 9.7293 3.7704 0.0000 0.0000 0.0000 -12.7884 -21.0280 -3.5737 1.3305 7.3044 20.6202 0.7616 7.1811 -20.6171 2.6181 -10.0495 -29.1373 0.0000 0.0000 0.0000 23.4018 4.9733 0.1593 -0.2241 -3.0473 8.4104 -0.1867 -5.7697 -12.2687 -0.0005 -0.1461 0.4014 3.5628 0.8196 1.8645 1.5438 1.2365 -1.3842 -0.4584 0.5710 -2.4275 11.2146 11.2131 -18.4104 -6.3785 13.3942 12.3448 -2.1363 6.3486 7.9868 0.0000 0.0000 0.0000 -84.1765 4.5339 38.7256 17.2418 -27.1754 -4.1972 -0.0000 0.0000 -26.1953 35.0991 51.4754 28.8029 -7.1250 0.0000 -0.0000 -51.4424 85.1291 -47.5257 0.0000 0.0000 0.0000 77.5984 -24.8418 5.4568 -77.0070 59.3524 -48.7722 0.0000 0.0000 0.6481 -12.7663 17.0964 -3.8108 7.1250 -0.0000 -0.0000 10.0058 -12.6722 7.6879
5.1790 17.4987 -14.0426 -3.7693 9.7285 3.6319 0.0000 0.0000 0.0000 -13.1499 -21.2789 -3.2619 1.3314 7.3067 20.6271 0.7200 7.3269 -20.3256 2.6757 -10.1506 -29.4659 0.0000 0.0000 0.0000 23.0863 4.7645 0.6128 -0.1917 -2.8198 7.7775 -0.1632 -5.8076 -11.8924 -0.0016 -0.2623 0.7206 3.3007 0.8300 1.9879 1.5180 1.2460 -1.3340 -0.3406 0.5801 -2.4493 11.1372 11.1893 -18.4381 -6.3572 13.3692 12.2595 -2.1227 6.3349 7.9536 -0.0000 -0.0000 0.0000 -84.2473 4.4804 38.6908 17.1592 -27.0672 -4.1595 -0.0000 0.0000 -26.0850 35.1628 51.5469 28.8841 -7.1250 0.0000 -0.0000 -52.2540 85.1833 -48.3404 -0.0000 -0.0000 0.0000 77.8239 -24.5017 5.0243 -77.1575 59.3675 -48.9017 0.0000 0.0000 1.3870 -12.9944 17.1841 -3.9003 7.1250 -0.0000 -0.0000 9.8559 -12.5638 7.5918
5.1880 17.5126 -14.0492 -3.5089 9.6976 3.4958 0.0000 0.0000 0.0000 -13.5980 -21.6448 -2.8769 1.3357 7.3181 20.6611 0.6700 7.6684 -20.1060 2.7138 -10.2167 -29.6813 0.0000 0.0000 0.0000 22.7045 4.5229 1.2236 -0.1499 -2.4950 6.8757 -0.1307 -5.8933 -11.3807 -0.0040 -0.4084 1.1222 3.0250 0.8578 2.0596 1.4511 1.2738 -1.2646 -0.2570 0.5988 -2.4213 11.1418 11.1449 -18.4719 -6.3945 13.3038 12.1585 -2.1462 6.3002 7.9228 0.0000 0.0000 0.0000 -84.2621 4.3976 38.7405 17.0872 -26.9726 -4.1268 -0.0000 0.0000 -26.0536 35.1540 51.7875 28.9567 -7.1250 0.0000 -0.0000 -55.0090 85.2505 -51.0179 0.0000 0.0000 0.0000 78.0932 -24.1598 4.5343 -77.2891 59.3806 -49.0150 0.0000 0.0000 2.2528 -13.0963 17.4199 -3.9840 7.1250 -0.0000 -0.0000 9.7908 -12.3175 7.5911
5.1985 17.5267 -14.0549 -3.2392 9.6699 3.3681 0.0000 0.0000 0.0000 -14.0569 -21.9596 -2.5123 1.3383 7.3248 20.6812 0.6206 7.9684 -19.8591 2.7549 -10.2873 -29.9120 0.0000 0.0000 0.0000 22.3107 4.2953 1.7991 -0.1154 -2.1906 6.0327 -0.1090 -5.9310 -10.9993 -0.0062 -0.5092 1.3992 2.7847 0.8907 2.1339 1.3459 1.3087 -1.2017 -0.2329 0.6198 -2.3999 11.1463 11.1077 -18.5904 -6.3510 13.2282 12.1447 -2.1394 6.2655 7.9282 0.0000 -0.0000 0.0000 -84.2075 4.2912 38.6857 17.0639 -26.9419 -4.1162 -0.0000 0.0000 -26.4441 34.6437 52.0287 28.5777 -7.1250 0.0000 -0.0000 -57.4865 85.0691 -53.2226 0.0000 -0.0000 0.0000 78.1162 -24.0459 4.6867 -76.8026 59.3315 -48.5964 0.0000 0.0000 2.6092 -14.1266 17.8360 -4.4080 7.1250 -0.0000 -0.0000 9.1195 -11.7999 7.1554
5.2078 17.5525 -14.0606 -2.7616 9.6790 3.1881 0.0000 0.0000 0.0000 -14.7360 -22.1558 -2.0896 1.3396 7.3284 20.6920 0.5513 8.0334 -19.1920 2.9019 -10.5345 -30.7254 0.0000 0.0000 0.0000 21.7010 3.9995 2.4235 -0.0876 -1.9087 5.2534 -0.0922 -5.9608 -10.6929 -0.0100 -0.6454 1.7737 2.3209 0.9044 2.3393 1.1844 1.3136 -1.1323 -0.1425 0.6282 -2.4499 11.3640 11.1268 -18.7448 -6.4843 13.2032 12.1639 -2.2108 6.2468 7.9828 0.0000 -0.0000 0.0000 -84.1667 4.1536 38.0846 17.1404 -27.0425 -4.1510 -0.0000 0.0000 -27.5628 33.3414 52.2925 27.4971 -7.1250 0.0000 -0.0000 -59.5139 84.5197 -54.6621 0.0000 -0.0000 0.0000 78.1598 -23.9253 4.7999 -76.2828 59.2769 -48.1494 0.0000 0.0000 3.0544 -14.8281 18.6240 -4.8326 7.1250 -0.0000 -0.0000 8.6792 -10.9309 6.9584
5.2144 17.5535 -14.0731 -2.6395 9.7275 3.1136 0.0000 0.0000 0.0000 -14.8647 -21.8276 -2.2061 1.3431 7.3373 20.7187 0.5761 7.6391 -19.1121 2.8781 -10.4951 -30.5953 0.0000 0.0000 0.0000 21.4721 3.7586 2.8686 -0.0628 -1.6175 4.4496 -0.0693 -6.0347 -10.2937 -0.0133 -0.7434 2.0431 2.1627 0.8834 2.4239 1.1668 1.2825 -1.1320 -0.0723 0.6146 -2.5006 11.4676 11.1345 -18.6465 -6.6631 13.2183 11.9496 -2.2900 6.2452 7.9168 -0.0000 0.0000 0.0000 -84.2543 4.1503 38.0568 17.0530 -26.9276 -4.1113 -0.0000 0.0000 -27.5755 33.3036 51.9993 27.3702 -7.1250 0.0000 -0.0000 -56.5339 84.4317 -51.7509 -0.0000 0.0000 0.0000 78.0058 -23.9423 4.9441 -76.4772 59.2976 -48.3165 0.0000 0.0000 3.9676 -14.6775 19.2418 -4.9335 7.1250 -0.0000 -0.0000 8.7951 -10.3215 7.1641
5.2213 17.5551 -14.0825 -2.6196 9.8116 3.0598 0.0000 0.0000 0.0000 -14.8853 -21.6505 -2.3120 1.3493 7.3537 20.7675 0.5867 7.3589 -18.9864 2.8802 -10.4986 -30.6069 0.0000 0.0000 0.0000 21.3489 3.5089 3.2578 -0.0429 -1.3375 3.6781 -0.0443 -6.1239 -9.8420 -0.0110 -0.6761 1.8580 2.1140 0.8361 2.4148 1.1892 1.2180 -1.1353 -0.0191 0.5835 -2.5014 11.4795 11.1374 -18.5198 -6.8096 13.2472 11.7159 -2.3449 6.2501 7.8324 -0.0000 0.0000 0.0000 -84.3799 4.2817 38.9092 16.8851 -26.7060 -4.0356 -0.0000 0.0000 -26.3682 35.1125 51.7312 28.9006 -7.1250 0.0000 -0.0000 -54.3401 85.2149 -50.3500 -0.0000 0.0000 0.0000 77.8298 -24.0107 5.1692 -77.2464 59.3764 -48.9781 0.0000 0.0000 4.8035 -15.0065 19.1626 -5.0287 7.1250 -0.0000 -0.0000 8.5795 -10.3657 6.9765
5.2303 17.5564 -14.0927 -2.6985 9.8724 3.0061 0.0000 0.0000 0.0000 -14.8073 -21.5490 -2.3949 1.3549 7.3684 20.8115 0.5999 7.1370 -18.9423 2.8419 -10.4347 -30.3960 0.0000 0.0000 0.0000 21.3727 3.3968 3.3841 -0.0371 -1.2433 3.4185 -0.0321 -6.1802 -9.6273 -0.0072 -0.5461 1.5006 2.2313 0.8281 2.3822 1.1826 1.2102 -1.1362 -0.0906 0.5777 -2.4817 11.5531 11.1300 -18.5689 -6.8962 13.2232 11.6492 -2.3865 6.2329 7.8276 -0.0000 -0.0000 0.0000 -84.4246 4.3290 39.1953 16.8341 -26.6386 -4.0127 -0.0000 0.0000 -26.0268 35.6352 51.5526 29.3112 -7.1250 0.0000 -0.0000 -52.4379 85.4137 -48.7077 -0.0000 -0.0000 0.0000 77.9354 -23.8681 5.0947 -77.2153 59.3733 -48.9515 0.0000 0.0000 5.5512 -15.9205 19.2194 -5.3643 7.1250 -0.0000 -0.0000 7.9889 -10.2052 6.5124
5.2395 17.5552 -14.1058 -2.7422 9.9100 2.9424 0.0000 0.0000 0.0000 -14.7944 -21.5785 -2.4121 1.3629 7.3892 20.8736 0.6107 7.0411 -18.9784 2.7558 -10.2888 -29.9172 0.0000 0.0000 0.0000 21.3562 3.2896 3.5564 -0.0305 -1.1273 3.0993 -0.0218 -6.2319 -9.4477 -0.0057 -0.4867 1.3374 2.3081 0.8286 2.4145 1.1706 1.2143 -1.1359 -0.1466 0.5783 -2.4976 11.5353 11.1547 -18.6594 -6.8537 13.2401 11.6152 -2.3643 6.2414 7.8280 0.0000 -0.0000 0.0000 -84.5056 4.3005 38.7428 16.9033 -26.7301 -4.0438 -0.0000 0.0000 -26.3798 34.7389 51.6050 28.5232 -7.1250 0.0000 -0.0000 -52.8149 84.9976 -48.7164 0.0000 -0.0000 0.0000 78.0302 -23.6198 4.9633 -76.5879 59.3093 -48.4117 0.0000 0.0000 6.2094 -16.5496 19.7570 -5.7360 7.1250 -0.0000 -0.0000 7.6047 -9.5830 6.2897
5.2488 17.5536 -14.1190 -2.7820 9.9388 2.8871 0.0000 0.0000 0.0000 -14.8153 -21.7601 -2.3571 1.3704 7.4086 20.9316 0.6119 7.1036 -19.0425 2.6811 -10.1600 -29.4966 0.0000 0.0000 0.0000 21.3483 3.2101 3.6830 -0.0259 -1.0395 2.8574 -0.0105 -6.3179 -9.2841 -0.0020 -0.2854 0.7841 2.3614 0.8202 2.4516 1.1840 1.2068 -1.1452 -0.1630 0.5734 -2.5275 11.4368 11.1870 -18.7301 -6.7932 13.2886 11.5929 -2.3203 6.2637 7.8249 0.0000 0.0000 0.0000 -84.6794 4.1621 37.6094 17.0382 -26.9081 -4.1046 -0.0000 0.0000 -27.4063 32.8687 52.0724 27.0070 -7.1250 0.0000 -0.0000 -57.1086 84.2480 -52.1317 0.0000 0.0000 0.0000 77.9573 -23.4759 5.0512 -76.1042 59.2577 -47.9959 0.0000 0.0000 6.6558 -17.0289 20.2737 -6.0580 7.1250 -0.0000 -0.0000 7.3213 -8.9956 6.1382
5.2583 17.5525 -14.1300 -2.7581 9.9797 2.8490 0.0000 0.0000 0.0000 -14.9182 -21.9935 -2.2748 1.3761 7.4234 20.9759 0.6082 7.2402 -19.1159 2.6325 -10.0749 -29.2198 0.0000 0.0000 0.0000 21.2774 3.1248 3.7833 -0.0226 -0.9697 2.6655 0.0015 -6.4147 -9.1125 -0.0003 0.1081 -0.2971 2.3885 0.8167 2.4497 1.1432 1.2027 -1.1730 -0.2200 0.5701 -2.5537 11.4029 11.1982 -18.7491 -6.7516 13.3028 11.5924 -2.2989 6.2722 7.8235 0.0000 0.0000 0.0000 -84.7358 4.1802 37.6896 17.0382 -26.9081 -4.1046 -0.0000 0.0000 -27.5671 32.7788 52.1131 26.9400 -7.1250 0.0000 -0.0000 -57.4723 84.2168 -52.4482 0.0000 0.0000 0.0000 77.9635 -23.3931 5.1241 -75.6471 59.2071 -47.6032 0.0000 0.0000 7.1166 -17.4671 20.5705 -6.3091 7.1250 -0.0000 -0.0000 7.0565 -8.6356 5.9636
5.2653 17.5514 -14.1405 -2.6919 10.0187 2.8191 0.0000 0.0000 0.0000 -15.0328 -22.1382 -2.2418 1.3819 7.4383 21.0206 0.6128 7.2498 -19.1726 2.5341 -9.8996 -28.6522 0.0000 0.0000 0.0000 21.1447 3.0043 3.9713 -0.0169 -0.8401 2.3090 0.0113 -6.4552 -8.9126 -0.0011 0.2122 -0.5830 2.3379 0.8105 2.4354 1.0976 1.1916 -1.1989 -0.2380 0.5647 -2.5725 11.4606 11.2090 -18.7293 -6.8056 13.3121 11.5522 -2.3249 6.2748 7.8157 -0.0000 -0.0000 0.0000 -84.7955 4.2325 37.6869 17.0808 -26.9641 -4.1239 -0.0000 0.0000 -27.7155 32.6837 52.1825 26.8774 -7.1250 0.0000 -0.0000 -58.1034 84.1900 -53.0222 -0.0000 -0.0000 0.0000 77.9870 -23.2476 5.1781 -75.0411 59.1374 -47.0827 0.0000 0.0000 7.4659 -17.7982 20.7562 -6.4907 7.1250 -0.0000 -0.0000 6.8555 -8.4015 5.8232
5.2711 17.5519 -14.1516 -2.7487 10.0409 2.7873 0.0000 0.0000 0.0000 -14.9808 -22.1611 -2.2849 1.3877 7.4534 21.0658 0.6209 7.1640 -19.1869 2.4539 -9.7536 -28.1824 0.0000 0.0000 0.0000 21.1261 2.8821 4.2254 -0.0102 -0.6516 1.7907 0.0217 -6.4774 -8.6605 -0.0004 0.1269 -0.3488 2.3166 0.8076 2.4292 1.1464 1.1889 -1.2327 -0.1760 0.5637 -2.6054 11.5404 11.2046 -18.7786 -6.9408 13.3043 11.5618 -2.3792 6.2607 7.8423 0.0000 0.0000 0.0000 -84.9573 4.3026 37.5850 17.1635 -27.0728 -4.1615 -0.0000 0.0000 -27.7291 32.8832 52.2035 27.0612 -7.1250 0.0000 -0.0000 -58.3875 84.2875 -53.3798 0.0000 0.0000 0.0000 77.8629 -23.0803 5.3571 -74.2948 59.0472 -46.4424 0.0000 0.0000 7.5534 -18.4054 20.7005 -6.7086 7.1250 -0.0000 -0.0000 6.4642 -8.3774 5.4894
